/* XPM */
static char *_2711_a9dd721a2b86b3c1e96262a62ef10cce1cf19b6c5b85349b1c6d6928af1b9919[] = {
/* columns rows colors chars-per-pixel */
"64 64 228 2 ",
"   c #400D1F",
".  c #583A1A",
"X  c #4B321B",
"o  c #4B0E24",
"O  c #440F22",
"+  c #570F2B",
"@  c #491327",
"#  c #53112A",
"$  c #5C112D",
"%  c #5E1532",
"&  c #62112F",
"*  c #640F30",
"=  c #6A0F34",
"-  c #641131",
";  c #6C1135",
":  c #6F1238",
">  c #741239",
",  c #7C123D",
"<  c #721835",
"1  c #6D0F35",
"2  c #572826",
"3  c #752C37",
"4  c #68451A",
"5  c #764B1A",
"6  c #74551A",
"7  c #594920",
"8  c #69522A",
"9  c #3B3C42",
"0  c #21367F",
"q  c #3B476C",
"w  c #746D4B",
"e  c #5A687E",
"r  c #787276",
"t  c #5C555D",
"y  c #895C18",
"u  c #804B12",
"i  c #92691B",
"p  c #98781F",
"a  c #81412F",
"s  c #816D25",
"d  c #946426",
"f  c #887527",
"g  c #927A27",
"h  c #847939",
"j  c #A87837",
"k  c #861042",
"l  c #881B48",
"z  c #A51D5D",
"x  c #82264C",
"c  c #893557",
"v  c #961D7C",
"b  c #B01766",
"n  c #9A3970",
"m  c #D71366",
"M  c #DA1774",
"N  c #D51166",
"B  c #E11D71",
"V  c #D22B77",
"C  c #E7267A",
"Z  c #A97547",
"A  c #8D4E64",
"S  c #8C6E72",
"D  c #AF4F7A",
"F  c #7D805C",
"G  c #9A811E",
"H  c #AA8A1C",
"J  c #B8961B",
"K  c #AC901E",
"L  c #BFA61F",
"P  c #9A8525",
"I  c #988736",
"U  c #948938",
"Y  c #A68B26",
"T  c #A99627",
"R  c #B19A23",
"E  c #BB9D22",
"W  c #A89835",
"Q  c #B48D21",
"!  c #BBA627",
"~  c #BBA538",
"^  c #C19C18",
"/  c #C8A51B",
"(  c #D5AA15",
")  c #D8AF18",
"_  c #D9B117",
"`  c #ECB90E",
"'  c #E6B60F",
"]  c #EABB11",
"[  c #E5B712",
"{  c #C5A724",
"}  c #CDB726",
"|  c #D5BB23",
" . c #D7BC27",
".. c #C9B533",
"X. c #D2AD39",
"o. c #EAC71B",
"O. c #F4CB16",
"+. c #F1C714",
"@. c #F4D31B",
"#. c #FCDB1E",
"$. c #F8D419",
"%. c #F0C10F",
"&. c #DCC222",
"*. c #DEC629",
"=. c #D7C037",
"-. c #E6CB22",
";. c #E7C924",
":. c #ECD125",
">. c #F4D622",
",. c #FADC22",
"<. c #F8DA27",
"1. c #F2CE33",
"2. c #8B8559",
"3. c #9A915B",
"4. c #9B8F4D",
"5. c #AC9450",
"6. c #B8A959",
"7. c #AEA043",
"8. c #948E68",
"9. c #B3AA71",
"0. c #C69A79",
"q. c #D6B062",
"w. c #D6C040",
"e. c #ECD441",
"r. c #D7CA7A",
"t. c #1F388A",
"y. c #233B89",
"u. c #1F3DA3",
"i. c #762589",
"p. c #7C2093",
"a. c #543CA1",
"s. c #7839BA",
"d. c #2C4894",
"f. c #1F42B6",
"g. c #2848A4",
"h. c #2143B6",
"j. c #3551AF",
"k. c #3C64B9",
"l. c #3A61AD",
"z. c #455B85",
"x. c #6E5096",
"c. c #405EA8",
"v. c #7855B4",
"b. c #4866AC",
"n. c #506BB7",
"m. c #476396",
"M. c #3C69C8",
"N. c #3C6CD4",
"B. c #2850C0",
"V. c #6A5EC3",
"C. c #406DC6",
"Z. c #4276DB",
"A. c #4777D3",
"S. c #5672C6",
"D. c #697ADA",
"F. c #6771CB",
"G. c #6B4BE6",
"H. c #757AF2",
"J. c #4D4ECA",
"K. c #852C8F",
"L. c #8B1FA4",
"P. c #8F39B3",
"I. c #A731BD",
"U. c #AB2BA2",
"Y. c #D33485",
"T. c #EB3285",
"R. c #E9338B",
"E. c #E63886",
"W. c #E63493",
"Q. c #E4369B",
"!. c #E32F89",
"~. c #DE39AA",
"^. c #D93BB9",
"/. c #C32EB6",
"(. c #E038A2",
"). c #D21484",
"_. c #90478F",
"`. c #A85B90",
"'. c #977896",
"]. c #8C7886",
"[. c #A96388",
"{. c #9147B2",
"}. c #A54DAE",
"|. c #A671AE",
" X c #DF479F",
".X c #E64990",
"XX c #BF1FCC",
"oX c #B823D9",
"OX c #B122C9",
"+X c #BE34E1",
"@X c #D53DC8",
"#X c #CA36D0",
"$X c #C53DE9",
"%X c #B641D3",
"&X c #B042CA",
"*X c #927FC2",
"=X c #BA4BEA",
"-X c #B353EF",
";X c #A95CF1",
":X c #AD59EF",
">X c #9969F4",
",X c #8776F5",
"<X c #9664E9",
"1X c #CE43DB",
"2X c #D141D6",
"3X c #CD42E4",
"4X c #CB43ED",
"5X c #C346EB",
"6X c #CB53E8",
"7X c #C565D1",
"8X c #6C87B5",
"9X c #5882D4",
"0X c #7686FA",
"qX c #878181",
"wX c #978B8B",
"eX c #AD9290",
"rX c #AF95AC",
"tX c #BAB8B9",
"yX c #BEA4BF",
"uX c #D4A1A3",
"iX c #C69A9A",
"pX c #B880CB",
"aX c #CDAACD",
"sX c #EBBDE4",
"dX c #E6B8DD",
"fX c #D9D9D9",
"gX c #EEEEED",
"hX c None",
/* pixels */
"hXhXhXhXhXhXhXhXhXhXhXhXhXhXhXhXhXhXhXhXhXhXhXhXhXhXhXhXhXhXhXhXhXhXhXhXhXhXhXhXhXhXhXhXhXhXhXhXhXhXhXhXhXhXhXhXhXhXhXhXhXhXhXhX",
"hXhXhXhXhXhXhXhXhXhXhXhXhXhXhXhXhXhXhXhXhXhXhXhXhXhXhXhXhXhXhXhXhXhXhXhXhXhXhXhXhXhXhXhXhXhXhXhXhXhXhXhXhXhXhXhXhXhXhXhXhXhXhXhX",
"hXhXhXhXhXhXhXhXhXhXhXhXhXhXhXhXhXhXhXhXhXhXhXhXhXhXhXhXhXhXhXhXhXhXhXhXhXhXhXhXhXhXhXhXhXhXhXhXhXhXhXhXhXhXhXhXhXhXhXhXhXhXhXhX",
"hXhXhXhXhXhXhXhXhXhXhXhXhXhXhXhXhXhXhXhXhXhXhXhXhXhXhXhXhXhXhXhXhXhXhXhXhXhXhXhXhXhXhXhXhXhXhXhXhXhXhXhXhXhXhXhXhXhXhXhXhXhXhXhX",
"hXhXhXhXhXhXhXhXhXhXhXhXhXhXhXhXhXhXhXhXhXhXhXhXhXhXhXO : > * > x c A hXhXhXhXhXhXhXhXhXhXhXhXhXhXhXhXhXhXhXhXhXhXhXhXhXhXhXhXhX",
"hXhXhXhXhXhXhXhXhXhXhXhXhXhXhXhXhXhXhXhXhXhXhXhXhXO   * k k , = k k l A S hXhXhXhXhXhXhXhXhXhXhXhXhXhXhXhXhXhXhXhXhXhXhXhXhXhXhX",
"hXhXhXhXhXhXhXhXhXhXhXhXhXhXhXhXhXhXhXhXhXhXhXhX@ O $ , k k k 1 1 k k k l S hXhXhXhXhXhXhXhXhXhXhXhXhXhXhXhXhXhXhXhXhXhXhXhXhXhX",
"hXhXhXhXhXhXhXhXhXhXhXhXhXhXhXhXhXhXhXhXhXhXhXo - o = k k k k > * k k k k c ].hXhXhXhXhXhXhXhXhXhXhXhXhXhXhXhXhXhXhXhXhXhXhXhXhX",
"hXhXhXhXhXhXhXhXhXhXhXhXhXhXhXhXhXhXhXhXhXhX@ * # + > k k k k k * k k k l k A hXhXhXhXhXhXhXhXhXhXhXhXhXhXhXhXhXhXhXhXhXhXhXhXhX",
"hXhXhXhXhXhXhXhXhXhXhXhXhXhXhXhXhXhXhXhXhXhX$ * o * , k k k k k * , > 1 - - 3 t hXhXhXhXhXhXhXhXhXhXhXhXhXhXhXhXhXhXhXhXhXhXhXhX",
"hXhXhXhXhXhXhXhXhXhXhXhXhXhXhXhXhXhXhXhXhX@ - * o * k , : 5 d P J }  .<.<.,.,.:.X.hXhXhXhXhXhXhXhXhXhXhXhXhXhXhXhXhXhXhXhXhXhXhX",
"hXhXhXhXhXhXhXhXhXhXhXhXhXhXhXhXhXhXhXhXhX# * * O + = 2 E *.:.#.,.#.,.,.#.#.#.#.,.e.9.hXhXhXhXhXhXhXhXhXhXhXhXhXhXhXhXhXhXhXhXhX",
"hXhXhXhXhXhXhXhXhXhXhXhXhXhXhXhXhXhXhXhXhX# + o o - 3 &.#.#.#.#.#.#.#.#.#.#.#.#.#.,.r.hXhXhXhXhXhXhXhXhXhXhXhXhXhXhXhXhXhXhXhXhX",
"hXhXhXhXhXhXhXhXhXhXhXhXhXhXhXhXhXhXhXhXhXO o & = < Q #.#.#.#.#.#.>.#.,.#.#.#.#.#.e.8.hXhXhXhXhXhXhXhXhXhXhXhXhXhXhXhXhXhXhXhXhX",
"hXhXhXhXhXhXhXhXhXhXhXhXhXhXhXhXhXhXhX@ # - * ; ; / $.#.#.#.,.,.,.R ! -.#.#.#.-.,.5.hXhXhXhXhXhXhXhXhXhXhXhXhXhXhXhXhXhXhXhXhXhX",
"hXhXhXhXhXhXhXhXhXhXhXhXhXhXhXhXhXhX@ $ * - ; < d O.#.,.&.#.:.-.) -.T :.} :.&.T T hXhXhXhXhXhXhXhXhXhXhXhXhXhXhXhXhXhXhXhXhXhXhX",
"hXhXhXhXhXhXhXhXhXhXhXhXhXhXhXhXhX$ * * - > > d %.@.:.} T T ~ 8.9.9.3.9.F 8.eX8.hXhXhXhXhXhXhXhXhXhXhXhXhXhXhXhXhXhXhXhXhXhXhXhX",
"hXhXhXhXhXhXhXhXhXhXhXhXhXhXhX@ $ & * & > , a [ $.#.$.! 2.wXF gXgXgXtXfXfXgXfXuXhXhXhXhXhXhXhXhXhXhXhXhXhXhXhXhXhXhXhXhXhXhXhXhX",
"hXhXhXhXhXhXhXhXhXhXhXhXhXhX# - - - > k , i _ %.$.#.#.#.6.tXyXaXaX8.w W h 8.aX'.].P hXhXQ R hXhXhXhXhXhXhXhXhXhXhXhXhXhXhXhXhXhX",
"hXhXhXhXhXhXhXhXhXhXhXhXhX@ - : > , , ; # / ` ` %.:.o.&.! wXdXsXdX].=.<.<.3.uXrXrXf / g { P hXhXhXhXhXhXhXhXhXhXhXhXhXhXhXhXhXhX",
"hXhXhXhXhXhXhXhXhXhXhXhXhXhXhX- - % hXhXhXhX( ` [ K ! ! ;.7.9.iXiX7. .} &.4.0.eXS hXU J E { 3.hXhXhXhXhXhXhXhXhXhXhXhXhXhXhXhXhX",
"hXhXhXhXhXhXhXhXhXhXhXhXhXhXhXhXhXhXhXhXhXg ( ` / Y H >.#.o.{ ~ ! o.>. .} { ..Y G L Y ( ( { 8.hXhXhXhXhXhXhXhXhXhXhXhXhXhXhXhXhX",
"hXhXhXhXhXhXhXhXhXhXhXhXhXhXhXhXhXhXhXhXhXK ` ` ) ! } { #.#.#.#.#.,.,.#.,.#.,.=.3.I ` ' ' o.hXhXhXhXhXhXhXhXhXhXhXhXhXhXhXhXhXhX",
"hXhXhXhXhXhXhXhXhXhXhXhXhXhXhXhXhXhXhXhXhX) ` ` [ J J g $.#.#.#.#.@.&.&. ...7.hXhXhX( _ ` 1.hXhXhXhXhXhXhXhXhXhXhXhXhXhXhXhXhXhX",
"hXhXhXhXhXhXhXhXhXhXhXhXhXhXhXhXhXhXhXhXhXhXhXhXhX/ ] H o.#.#.#.,.! &.W hXhXhXhXhXhXh ^ ^ w.hXhXhXhXhXhXhXhXhXhXhXhXhXhXhXhXhXhX",
"hXhXhXhXhXhXhXhXhXhXhXhXhXhXhXhXhXhXhXhXhXhXhXhXhXT ) f _ #.#.#.#.#.o.4.hXhXhXhXhXhXP ' ^ 6.hXhXhXhXhXhXhXhXhXhXhXhXhXhXhXhXhXhX",
"hXhXhXhXhXhXhXhXhXhXhXhXhXhXhXhXhXhXhXhXhXhXhXhXhXhXhXhXK @.,.,.#.#.&.hXhXhXhXhXhXi.L ` %.6.hXhXhXhXhXhXhXhXhXhXhXhXhXhXhXhXhXhX",
"hXhXhXhXhXhXhXhXhXhXhXhXhXhXhXhXhXhXhXhXhXhXhXhXhXhXhXi.U.`.5.X.&.>. ._.x.x.hXhX_.L.^ ` +.8.hXhXhXhXhXhXhXhXhXhXhXhXhXhXhXhXhXhX",
"hXhXhXhXhXhXhXhXhXhXhXhXhXhXhXhXhXhXhXhXhXhXhXhXhXhXj.J.V.{.{.}.}.[.`.{.v.<XK.z v +X}.Z X.'.hXhXhXhXhXhXhXhXhXhXhXhXhXhXhXhXhXhX",
"hXhXhXhXhXhXhXhXhXhXhXhXhXhXhXhXhXhXhXhXhXhXhXhXhXa.G.G.H.0XD.v.v.{.{.v.D.;X1XC V 2X3X%XP.&XrXhXhXhXhXhXhXhXhXhXhXhXhXhXhXhXhXhX",
"hXhXhXhXhXhXhXhXhXhXhXhXhXhXhXhXhXhXhXhXhXhXhXhXhXOXoX$X4X-X-X,X0X0X,X>X>X=X5X~.T.^.4X4X$X4X'.hXhXhXhXhXhXhXhXhXhXhXhXhXhXhXhXhX",
"hXhXhXhXhXhXhXhXhXhXhXhXhXhXhXhXhXhXhXhXhXhXhXhXp.oX+X4X4X4X4X=X;X;X5X5X5XI.$XW.T.~.3X3X5X+XhXhXhXhXhXhXhXhXhXhXhXhXhXhXhXhXhXhX",
"hXhXhXhXhXhXhXhXhXhXhXhXhXhXhXhXhXhXhXhXhXhXhXhXOX/.#X4X4XI.3X3X4X4X4X4X4X{.#XM C C Q. XI.hXhXhXhXhXhXhXhXhXhXhXhXhXhXhXhXhXhXhX",
"hXhXhXhXhXhXhXhXhXhXhXhXhXhXhXhXhXhXhXhXhXhXhXb ).m R.@X1X_.2X4X4X4X4X4X4X}.K.b N C C V c hXhXhXhXhXhXhXhXhXhXhXhXhXhXhXhXhXhXhX",
"hXhXhXhXhXhXhXhXhXhXhXhXhXhXhXhXhXhXhXhXhXhXhXN N m C T..XD E.2X3X@X~.^.@X Xr hXhXhXhXhXhXhXhXhXhXhXhXhXhXhXhXhXhXhXhXhXhXhXhXhX",
"hXhXhXhXhXhXhXhXhXhXhXhXhXhXhXhXhXhXhXhXhXhXhXN M B W.W.T.D E.W.(.R.T.T.!.E.wXhXhXhXhXhXhXhXhXhXhXhXhXhXhXhXhXhXhXhXhXhXhXhXhXhX",
"hXhXhXhXhXhXhXhXhXhXhXhXhXhXhXhXhXhXhXhXhXhXhXU.XX#X$X#X~.[.V C T.T.T.T.T.E.rXhXhXhXhXhXhXhXhXhXhXhXhXhXhXhXhXhXhXhXhXhXhXhXhXhX",
"hXhXhXhXhXhXhXhXhXhXhXhXhXhXhXhXhXhXhXhXhXhXhXoXXX$X$X$X3X|. XY.T.T.W.~.R.C rXhXhXhXhXhXhXhXhXhXhXhXhXhXhXhXhXhXhXhXhXhXhXhXhXhX",
"hXhXhXhXhXhXhXhXhXhXhXhXhXhXhXhXhXhXhXhXhXhXhXOXK.Z Z Z K.}.%X$X^.@X3X4X$X@X7XhXhXhXhXhXhXhXhXhXhXhXhXhXhXhXhXhXhXhXhXhXhXhXhXhX",
"hXhXhXhXhXhXhXhXhXhXhXhXhXhXhXhXhXhXhXhXhXhXhXL.n ` O.$.A s.=X+X4X4X4X4X4X$X6XrXhXhXhXhXhXhXhXhXhXhXhXhXhXhXhXhXhXhXhXhXhXhXhXhX",
"hXhXhXhXhXhXhXhXhXhXhXhXhXhXhXhXhXhXhXhXhXhXhXL.i.( O.#.2.D.pX>X4X4X4X4X4X5X5X7XhXhXhXhXhXhXhXhXhXhXhXhXhXhXhXhXhXhXhXhXhXhXhXhX",
"hXhXhXhXhXhXhXhXhXhXhXhXhXhXhXhXhXhXhXhXhXhXhXs.G.J O.#.4.b.n.,X>X:X5X5X>X>X>X*XhXhXhXhXhXhXhXhXhXhXhXhXhXhXhXhXhXhXhXhXhXhXhXhX",
"hXhXhXhXhXhXhXhXhXhXhXhXhXhXhXhXhXhXhXhXhXhXhXhXj.w o.,.4.M.N.l.n.0X0X0X0X0XD.hXhXhXhXhXhXhXhXhXhXhXhXhXhXhXhXhXhXhXhXhXhXhXhXhX",
"hXhXhXhXhXhXhXhXhXhXhXhXhXhXhXhXhXhXhXhXhXhXhXhXhXq I F b.A.Z.A.k.n.F.D.D.S.b.hXhXhXhXhXhXhXhXhXhXhXhXhXhXhXhXhXhXhXhXhXhXhXhXhX",
"hXhXhXhXhXhXhXhXhXhXhXhXhXhXhXhXhXhXhXhXhXhXhXhXhXy.u.M.Z.Z.M.M.Z.Z.M.C.C.M.A.hXhXhXhXhXhXhXhXhXhXhXhXhXhXhXhXhXhXhXhXhXhXhXhXhX",
"hXhXhXhXhXhXhXhXhXhXhXhXhXhXhXhXhXhXhXhXhXhXhXhXhXt.f.h.Z.Z.M.k.Z.Z.Z.Z.Z.Z.9XhXhXhXhXhXhXhXhXhXhXhXhXhXhXhXhXhXhXhXhXhXhXhXhXhX",
"hXhXhXhXhXhXhXhXhXhXhXhXhXhXhXhXhXhXhXhXhXhXhXhXhXy.f.f.M.k.l.M.d.d.l.Z.Z.Z.9XhXhXhXhXhXhXhXhXhXhXhXhXhXhXhXhXhXhXhXhXhXhXhXhXhX",
"hXhXhXhXhXhXhXhXhXhXhXhXhXhXhXhXhXhXhXhXhXhXhXhXhXy.f.f.g.l.M.S.e d.N.N.Z.Z.9XhXhXhXhXhXhXhXhXhXhXhXhXhXhXhXhXhXhXhXhXhXhXhXhXhX",
"hXhXhXhXhXhXhXhXhXhXhXhXhXhXhXhXhXhXhXhXhXhXhXhXhXg.u.B.Z.Z.Z.8XhX0 z.M.m.M.n.hXhXhXhXhXhXhXhXhXhXhXhXhXhXhXhXhXhXhXhXhXhXhXhXhX",
"hXhXhXhXhXhXhXhXhXhXhXhXhXhXhXhXhXhXhXhXhXhXhXhXhXhXq B.l.A.C.8XhX9 I w T t hXhXhXhXhXhXhXhXhXhXhXhXhXhXhXhXhXhXhXhXhXhXhXhXhXhX",
"hXhXhXhXhXhXhXhXhXhXhXhXhXhXhXhXhXhXhXhXhXhXhXhXhXhXR h / h h hXhXhX( +.>. .hXhXhXhXhXhXhXhXhXhXhXhXhXhXhXhXhXhXhXhXhXhXhXhXhXhX",
"hXhXhXhXhXhXhXhXhXhXhXhXhXhXhXhXhXhXhXhXhXhXhXhXhXhX) +.@.o.P hXhXhX( O.,.=.hXhXhXhXhXhXhXhXhXhXhXhXhXhXhXhXhXhXhXhXhXhXhXhXhXhX",
"hXhXhXhXhXhXhXhXhXhXhXhXhXhXhXhXhXhXhXhXhXhXhXhXhXQ %.,.#.} hXhXhXhX( O.#.:.w hXhXhXhXhXhXhXhXhXhXhXhXhXhXhXhXhXhXhXhXhXhXhXhXhX",
"hXhXhXhXhXhXhXhXhXhXhXhXhXhXhXhXhXhXhXhXhXhXhXhXhXJ O.#.#.~ hXhXhXhX( O.#.L g 8 hXhXhXhXhXhXhXhXhXhXhXhXhXhXhXhXhXhXhXhXhXhXhXhX",
"hXhXhXhXhXhXhXhXhXhXhXhXhXhXhXhXhXhXhXhXhXhXhXhXhX] $.#.,.hXhXhXhXhX( ] K y R *.T 2.hXhXhXhXhXhXhXhXhXhXhXhXhXhXhXhXhXhXhXhXhXhX",
"hXhXhXhXhXhXhXhXhXhXhXhXhXhXhXhXhXhXhXhXhXhXhXX 4 J | ,.<.hXhXhXhX7 H J 6 i | T T 8 hXhXhXhXhXhXhXhXhXhXhXhXhXhXhXhXhXhXhXhXhXhX",
"hXhXhXhXhXhXhXhXhXhXhXhXhXhXhXhXhXhXhXhXhXhX6 E p i i Y  .hXhXhXhX. . 4 5 6 H i 8 7 hXhXhXhXhXhXhXhXhXhXhXhXhXhXhXhXhXhXhXhXhXhX",
"hXhXhXhXhXhXhXhXhXhXhXhXhXhXhXhXhXhXhXhXhXs P ! _ T g y 7 hXhXhXhXhXhX4 5 . X 4 y hXhXhXhXhXhXhXhXhXhXhXhXhXhXhXhXhXhXhXhXhXhXhX",
"hXhXhXhXhXhXhXhXhXhXhXhXhXhXhXhXhXhXhXhXhX. 7 7 f :.P y 6 hXhXhXhXhXhXhXhXhXhXhXhXhXhXhXhXhXhXhXhXhXhXhXhXhXhXhXhXhXhXhXhXhXhXhX",
"hXhXhXhXhXhXhXhXhXhXhXhXhXhXhXhXhXhXhXhXhXhX4 5 4 6 4 5 hXhXhXhXhXhXhXhXhXhXhXhXhXhXhXhXhXhXhXhXhXhXhXhXhXhXhXhXhXhXhXhXhXhXhXhX",
"hXhXhXhXhXhXhXhXhXhXhXhXhXhXhXhXhXhXhXhXhXhXhXhXhXhXhXhXhXhXhXhXhXhXhXhXhXhXhXhXhXhXhXhXhXhXhXhXhXhXhXhXhXhXhXhXhXhXhXhXhXhXhXhX",
"hXhXhXhXhXhXhXhXhXhXhXhXhXhXhXhXhXhXhXhXhXhXhXhXhXhXhXhXhXhXhXhXhXhXhXhXhXhXhXhXhXhXhXhXhXhXhXhXhXhXhXhXhXhXhXhXhXhXhXhXhXhXhXhX",
"hXhXhXhXhXhXhXhXhXhXhXhXhXhXhXhXhXhXhXhXhXhXhXhXhXhXhXhXhXhXhXhXhXhXhXhXhXhXhXhXhXhXhXhXhXhXhXhXhXhXhXhXhXhXhXhXhXhXhXhXhXhXhXhX",
"hXhXhXhXhXhXhXhXhXhXhXhXhXhXhXhXhXhXhXhXhXhXhXhXhXhXhXhXhXhXhXhXhXhXhXhXhXhXhXhXhXhXhXhXhXhXhXhXhXhXhXhXhXhXhXhXhXhXhXhXhXhXhXhX"
};
