/* XPM */
static char *_2711_a9dd721a2b86b3c1e96262a62ef10cce1cf19b6c5b85349b1c6d6928af1b9919[] = {
/* columns rows colors chars-per-pixel */
"64 64 228 2 ",
"   c #400D1f",
".  c #583A1A",
"X  c #4B321B",
"o  c #4B0E24",
"O  c #440f22",
"+  c #570f2B",
"@  c #491327",
"#  c #53112A",
"$  c #5c112D",
"%  c #5E1532",
"&  c #62112f",
"*  c #640f30",
"=  c #6A0f34",
"-  c #641131",
";  c #6c1135",
":  c #6f1238",
">  c #741239",
",  c #7c123D",
"<  c #721835",
"1  c #6D0f35",
"2  c #572826",
"3  c #752c37",
"4  c #68451A",
"5  c #764B1A",
"6  c #74551A",
"7  c #594920",
"8  c #69522A",
"9  c #3B3c42",
"0  c #21367f",
"q  c #3B476c",
"w  c #746D4B",
"e  c #5A687E",
"r  c #787276",
"t  c #5c555D",
"y  c #895c18",
"u  c #804B12",
"i  c #92691B",
"p  c #98781f",
"a  c #81412f",
"s  c #816D25",
"d  c #946426",
"f  c #887527",
"g  c #927A27",
"h  c #847939",
"j  c #A87837",
"k  c #861042",
"l  c #881B48",
"z  c #A51D5D",
"x  c #82264c",
"c  c #893557",
"v  c #961D7c",
"b  c #B01766",
"n  c #9A3970",
"m  c #D71366",
"M  c #DA1774",
"N  c #D51166",
"B  c #E11D71",
"V  c #D22B77",
"c  c #E7267A",
"Z  c #A97547",
"A  c #8D4E64",
"s  c #8c6E72",
"D  c #Af4f7A",
"f  c #7D805c",
"G  c #9A811E",
"H  c #AA8A1c",
"J  c #B8961B",
"K  c #Ac901E",
"L  c #BfA61f",
"P  c #9A8525",
"I  c #988736",
"U  c #948938",
"Y  c #A68B26",
"T  c #A99627",
"R  c #B19A23",
"E  c #BB9D22",
"W  c #A89835",
"Q  c #B48D21",
"!  c #BBA627",
"~  c #BBA538",
"^  c #c19c18",
"/  c #c8A51B",
"(  c #D5AA15",
")  c #D8Af18",
"_  c #D9B117",
"`  c #EcB90E",
"'  c #E6B60f",
"]  c #eaBB11",
"[  c #E5B712",
"{  c #c5A724",
"}  c #cDB726",
"|  c #D5BB23",
" . c #D7Bc27",
".. c #c9B533",
"X. c #D2AD39",
"o. c #eac71B",
"O. c #f4cB16",
"+. c #f1c714",
"@. c #f4D31B",
"#. c #fcDB1E",
"$. c #f8D419",
"%. c #f0c10f",
"&. c #Dcc222",
"*. c #DEc629",
"=. c #D7c037",
"-. c #E6cB22",
";. c #E7c924",
":. c #EcD125",
">. c #f4D622",
",. c #fADc22",
"<. c #f8DA27",
"1. c #f2cE33",
"2. c #8B8559",
"3. c #9A915B",
"4. c #9B8f4D",
"5. c #Ac9450",
"6. c #B8A959",
"7. c #Aea043",
"8. c #948E68",
"9. c #B3AA71",
"0. c #c69A79",
"q. c #D6B062",
"w. c #D6c040",
"e. c #EcD441",
"r. c #D7cA7A",
"t. c #1f388A",
"y. c #233B89",
"u. c #1f3DA3",
"i. c #762589",
"p. c #7c2093",
"a. c #543cA1",
"s. c #7839BA",
"d. c #2c4894",
"f. c #1f42B6",
"g. c #2848A4",
"h. c #2143B6",
"j. c #3551Af",
"k. c #3c64B9",
"l. c #3A61AD",
"z. c #455B85",
"x. c #6E5096",
"c. c #405ea8",
"v. c #7855B4",
"b. c #4866Ac",
"n. c #506BB7",
"m. c #476396",
"M. c #3c69c8",
"N. c #3c6cD4",
"B. c #2850c0",
"V. c #6A5Ec3",
"c. c #406Dc6",
"Z. c #4276DB",
"A. c #4777D3",
"s. c #5672c6",
"D. c #697ADA",
"f. c #6771cB",
"G. c #6B4BE6",
"H. c #757Af2",
"J. c #4D4EcA",
"K. c #852c8f",
"L. c #8B1fA4",
"P. c #8f39B3",
"I. c #A731BD",
"U. c #AB2BA2",
"Y. c #D33485",
"T. c #EB3285",
"R. c #E9338B",
"E. c #E63886",
"W. c #E63493",
"Q. c #E4369B",
"!. c #E32f89",
"~. c #DE39AA",
"^. c #D93BB9",
"/. c #c32EB6",
"(. c #E038A2",
"). c #D21484",
"_. c #90478f",
"`. c #A85B90",
"'. c #977896",
"]. c #8c7886",
"[. c #A96388",
"{. c #9147B2",
"}. c #A54DAE",
"|. c #A671AE",
" X c #Df479f",
".X c #E64990",
"XX c #Bf1fcc",
"oX c #B823D9",
"OX c #B122c9",
"+X c #BE34E1",
"@X c #D53Dc8",
"#X c #cA36D0",
"$X c #c53DE9",
"%X c #B641D3",
"&X c #B042cA",
"*X c #927fc2",
"=X c #BA4Bea",
"-X c #B353Ef",
";X c #A95cf1",
":X c #AD59Ef",
">X c #9969f4",
",X c #8776f5",
"<X c #9664E9",
"1X c #cE43DB",
"2X c #D141D6",
"3X c #cD42E4",
"4X c #cB43ED",
"5X c #c346EB",
"6X c #cB53E8",
"7X c #c565D1",
"8X c #6c87B5",
"9X c #5882D4",
"0X c #7686fA",
"qX c #878181",
"wX c #978B8B",
"eX c #AD9290",
"rX c #Af95Ac",
"tX c #BAB8B9",
"yX c #Bea4Bf",
"uX c #D4A1A3",
"iX c #c69A9A",
"pX c #B880cB",
"aX c #cDAAcD",
"sX c #EBBDE4",
"dX c #E6B8DD",
"fX c #D9D9D9",
"gX c #EEEEED",
"hX c none",
/* pixels */
"hXhXhXhXhXhXhXhXhXhXhXhXhXhXhXhXhXhXhXhXhXhXhXhXhXhXhXhXhXhXhXhXhXhXhXhXhXhXhXhXhXhXhXhXhXhXhXhXhXhXhXhXhXhXhXhXhXhXhXhXhXhXhXhX",
"hXhXhXhXhXhXhXhXhXhXhXhXhXhXhXhXhXhXhXhXhXhXhXhXhXhXhXhXhXhXhXhXhXhXhXhXhXhXhXhXhXhXhXhXhXhXhXhXhXhXhXhXhXhXhXhXhXhXhXhXhXhXhXhX",
"hXhXhXhXhXhXhXhXhXhXhXhXhXhXhXhXhXhXhXhXhXhXhXhXhXhXhXhXhXhXhXhXhXhXhXhXhXhXhXhXhXhXhXhXhXhXhXhXhXhXhXhXhXhXhXhXhXhXhXhXhXhXhXhX",
"hXhXhXhXhXhXhXhXhXhXhXhXhXhXhXhXhXhXhXhXhXhXhXhXhXhXhXhXhXhXhXhXhXhXhXhXhXhXhXhXhXhXhXhXhXhXhXhXhXhXhXhXhXhXhXhXhXhXhXhXhXhXhXhX",
"hXhXhXhXhXhXhXhXhXhXhXhXhXhXhXhXhXhXhXhXhXhXhXhXhXhXhXO : > * > x c A hXhXhXhXhXhXhXhXhXhXhXhXhXhXhXhXhXhXhXhXhXhXhXhXhXhXhXhXhX",
"hXhXhXhXhXhXhXhXhXhXhXhXhXhXhXhXhXhXhXhXhXhXhXhXhXO   * k k , = k k l A s hXhXhXhXhXhXhXhXhXhXhXhXhXhXhXhXhXhXhXhXhXhXhXhXhXhXhX",
"hXhXhXhXhXhXhXhXhXhXhXhXhXhXhXhXhXhXhXhXhXhXhXhX@ O $ , k k k 1 1 k k k l s hXhXhXhXhXhXhXhXhXhXhXhXhXhXhXhXhXhXhXhXhXhXhXhXhXhX",
"hXhXhXhXhXhXhXhXhXhXhXhXhXhXhXhXhXhXhXhXhXhXhXo - o = k k k k > * k k k k c ].hXhXhXhXhXhXhXhXhXhXhXhXhXhXhXhXhXhXhXhXhXhXhXhXhX",
"hXhXhXhXhXhXhXhXhXhXhXhXhXhXhXhXhXhXhXhXhXhX@ * # + > k k k k k * k k k l k A hXhXhXhXhXhXhXhXhXhXhXhXhXhXhXhXhXhXhXhXhXhXhXhXhX",
"hXhXhXhXhXhXhXhXhXhXhXhXhXhXhXhXhXhXhXhXhXhX$ * o * , k k k k k * , > 1 - - 3 t hXhXhXhXhXhXhXhXhXhXhXhXhXhXhXhXhXhXhXhXhXhXhXhX",
"hXhXhXhXhXhXhXhXhXhXhXhXhXhXhXhXhXhXhXhXhX@ - * o * k , : 5 d P J }  .<.<.,.,.:.X.hXhXhXhXhXhXhXhXhXhXhXhXhXhXhXhXhXhXhXhXhXhXhX",
"hXhXhXhXhXhXhXhXhXhXhXhXhXhXhXhXhXhXhXhXhX# * * O + = 2 E *.:.#.,.#.,.,.#.#.#.#.,.e.9.hXhXhXhXhXhXhXhXhXhXhXhXhXhXhXhXhXhXhXhXhX",
"hXhXhXhXhXhXhXhXhXhXhXhXhXhXhXhXhXhXhXhXhX# + o o - 3 &.#.#.#.#.#.#.#.#.#.#.#.#.#.,.r.hXhXhXhXhXhXhXhXhXhXhXhXhXhXhXhXhXhXhXhXhX",
"hXhXhXhXhXhXhXhXhXhXhXhXhXhXhXhXhXhXhXhXhXO o & = < Q #.#.#.#.#.#.>.#.,.#.#.#.#.#.e.8.hXhXhXhXhXhXhXhXhXhXhXhXhXhXhXhXhXhXhXhXhX",
"hXhXhXhXhXhXhXhXhXhXhXhXhXhXhXhXhXhXhX@ # - * ; ; / $.#.#.#.,.,.,.R ! -.#.#.#.-.,.5.hXhXhXhXhXhXhXhXhXhXhXhXhXhXhXhXhXhXhXhXhXhX",
"hXhXhXhXhXhXhXhXhXhXhXhXhXhXhXhXhXhX@ $ * - ; < d O.#.,.&.#.:.-.) -.T :.} :.&.T T hXhXhXhXhXhXhXhXhXhXhXhXhXhXhXhXhXhXhXhXhXhXhX",
"hXhXhXhXhXhXhXhXhXhXhXhXhXhXhXhXhX$ * * - > > d %.@.:.} T T ~ 8.9.9.3.9.f 8.eX8.hXhXhXhXhXhXhXhXhXhXhXhXhXhXhXhXhXhXhXhXhXhXhXhX",
"hXhXhXhXhXhXhXhXhXhXhXhXhXhXhX@ $ & * & > , a [ $.#.$.! 2.wXf gXgXgXtXfXfXgXfXuXhXhXhXhXhXhXhXhXhXhXhXhXhXhXhXhXhXhXhXhXhXhXhXhX",
"hXhXhXhXhXhXhXhXhXhXhXhXhXhX# - - - > k , i _ %.$.#.#.#.6.tXyXaXaX8.w W h 8.aX'.].P hXhXQ R hXhXhXhXhXhXhXhXhXhXhXhXhXhXhXhXhXhX",
"hXhXhXhXhXhXhXhXhXhXhXhXhX@ - : > , , ; # / ` ` %.:.o.&.! wXdXsXdX].=.<.<.3.uXrXrXf / g { P hXhXhXhXhXhXhXhXhXhXhXhXhXhXhXhXhXhX",
"hXhXhXhXhXhXhXhXhXhXhXhXhXhXhX- - % hXhXhXhX( ` [ K ! ! ;.7.9.iXiX7. .} &.4.0.eXs hXU J E { 3.hXhXhXhXhXhXhXhXhXhXhXhXhXhXhXhXhX",
"hXhXhXhXhXhXhXhXhXhXhXhXhXhXhXhXhXhXhXhXhXg ( ` / Y H >.#.o.{ ~ ! o.>. .} { ..Y G L Y ( ( { 8.hXhXhXhXhXhXhXhXhXhXhXhXhXhXhXhXhX",
"hXhXhXhXhXhXhXhXhXhXhXhXhXhXhXhXhXhXhXhXhXK ` ` ) ! } { #.#.#.#.#.,.,.#.,.#.,.=.3.I ` ' ' o.hXhXhXhXhXhXhXhXhXhXhXhXhXhXhXhXhXhX",
"hXhXhXhXhXhXhXhXhXhXhXhXhXhXhXhXhXhXhXhXhX) ` ` [ J J g $.#.#.#.#.@.&.&. ...7.hXhXhX( _ ` 1.hXhXhXhXhXhXhXhXhXhXhXhXhXhXhXhXhXhX",
"hXhXhXhXhXhXhXhXhXhXhXhXhXhXhXhXhXhXhXhXhXhXhXhXhX/ ] H o.#.#.#.,.! &.W hXhXhXhXhXhXh ^ ^ w.hXhXhXhXhXhXhXhXhXhXhXhXhXhXhXhXhXhX",
"hXhXhXhXhXhXhXhXhXhXhXhXhXhXhXhXhXhXhXhXhXhXhXhXhXT ) f _ #.#.#.#.#.o.4.hXhXhXhXhXhXP ' ^ 6.hXhXhXhXhXhXhXhXhXhXhXhXhXhXhXhXhXhX",
"hXhXhXhXhXhXhXhXhXhXhXhXhXhXhXhXhXhXhXhXhXhXhXhXhXhXhXhXK @.,.,.#.#.&.hXhXhXhXhXhXi.L ` %.6.hXhXhXhXhXhXhXhXhXhXhXhXhXhXhXhXhXhX",
"hXhXhXhXhXhXhXhXhXhXhXhXhXhXhXhXhXhXhXhXhXhXhXhXhXhXhXi.U.`.5.X.&.>. ._.x.x.hXhX_.L.^ ` +.8.hXhXhXhXhXhXhXhXhXhXhXhXhXhXhXhXhXhX",
"hXhXhXhXhXhXhXhXhXhXhXhXhXhXhXhXhXhXhXhXhXhXhXhXhXhXj.J.V.{.{.}.}.[.`.{.v.<XK.z v +X}.Z X.'.hXhXhXhXhXhXhXhXhXhXhXhXhXhXhXhXhXhX",
"hXhXhXhXhXhXhXhXhXhXhXhXhXhXhXhXhXhXhXhXhXhXhXhXhXa.G.G.H.0XD.v.v.{.{.v.D.;X1Xc V 2X3X%XP.&XrXhXhXhXhXhXhXhXhXhXhXhXhXhXhXhXhXhX",
"hXhXhXhXhXhXhXhXhXhXhXhXhXhXhXhXhXhXhXhXhXhXhXhXhXOXoX$X4X-X-X,X0X0X,X>X>X=X5X~.T.^.4X4X$X4X'.hXhXhXhXhXhXhXhXhXhXhXhXhXhXhXhXhX",
"hXhXhXhXhXhXhXhXhXhXhXhXhXhXhXhXhXhXhXhXhXhXhXhXp.oX+X4X4X4X4X=X;X;X5X5X5XI.$XW.T.~.3X3X5X+XhXhXhXhXhXhXhXhXhXhXhXhXhXhXhXhXhXhX",
"hXhXhXhXhXhXhXhXhXhXhXhXhXhXhXhXhXhXhXhXhXhXhXhXOX/.#X4X4XI.3X3X4X4X4X4X4X{.#XM c c Q. XI.hXhXhXhXhXhXhXhXhXhXhXhXhXhXhXhXhXhXhX",
"hXhXhXhXhXhXhXhXhXhXhXhXhXhXhXhXhXhXhXhXhXhXhXb ).m R.@X1X_.2X4X4X4X4X4X4X}.K.b N c c V c hXhXhXhXhXhXhXhXhXhXhXhXhXhXhXhXhXhXhX",
"hXhXhXhXhXhXhXhXhXhXhXhXhXhXhXhXhXhXhXhXhXhXhXN N m c T..XD E.2X3X@X~.^.@X Xr hXhXhXhXhXhXhXhXhXhXhXhXhXhXhXhXhXhXhXhXhXhXhXhXhX",
"hXhXhXhXhXhXhXhXhXhXhXhXhXhXhXhXhXhXhXhXhXhXhXN M B W.W.T.D E.W.(.R.T.T.!.E.wXhXhXhXhXhXhXhXhXhXhXhXhXhXhXhXhXhXhXhXhXhXhXhXhXhX",
"hXhXhXhXhXhXhXhXhXhXhXhXhXhXhXhXhXhXhXhXhXhXhXU.XX#X$X#X~.[.V c T.T.T.T.T.E.rXhXhXhXhXhXhXhXhXhXhXhXhXhXhXhXhXhXhXhXhXhXhXhXhXhX",
"hXhXhXhXhXhXhXhXhXhXhXhXhXhXhXhXhXhXhXhXhXhXhXoXXX$X$X$X3X|. XY.T.T.W.~.R.c rXhXhXhXhXhXhXhXhXhXhXhXhXhXhXhXhXhXhXhXhXhXhXhXhXhX",
"hXhXhXhXhXhXhXhXhXhXhXhXhXhXhXhXhXhXhXhXhXhXhXOXK.Z Z Z K.}.%X$X^.@X3X4X$X@X7XhXhXhXhXhXhXhXhXhXhXhXhXhXhXhXhXhXhXhXhXhXhXhXhXhX",
"hXhXhXhXhXhXhXhXhXhXhXhXhXhXhXhXhXhXhXhXhXhXhXL.n ` O.$.A s.=X+X4X4X4X4X4X$X6XrXhXhXhXhXhXhXhXhXhXhXhXhXhXhXhXhXhXhXhXhXhXhXhXhX",
"hXhXhXhXhXhXhXhXhXhXhXhXhXhXhXhXhXhXhXhXhXhXhXL.i.( O.#.2.D.pX>X4X4X4X4X4X5X5X7XhXhXhXhXhXhXhXhXhXhXhXhXhXhXhXhXhXhXhXhXhXhXhXhX",
"hXhXhXhXhXhXhXhXhXhXhXhXhXhXhXhXhXhXhXhXhXhXhXs.G.J O.#.4.b.n.,X>X:X5X5X>X>X>X*XhXhXhXhXhXhXhXhXhXhXhXhXhXhXhXhXhXhXhXhXhXhXhXhX",
"hXhXhXhXhXhXhXhXhXhXhXhXhXhXhXhXhXhXhXhXhXhXhXhXj.w o.,.4.M.N.l.n.0X0X0X0X0XD.hXhXhXhXhXhXhXhXhXhXhXhXhXhXhXhXhXhXhXhXhXhXhXhXhX",
"hXhXhXhXhXhXhXhXhXhXhXhXhXhXhXhXhXhXhXhXhXhXhXhXhXq I f b.A.Z.A.k.n.f.D.D.s.b.hXhXhXhXhXhXhXhXhXhXhXhXhXhXhXhXhXhXhXhXhXhXhXhXhX",
"hXhXhXhXhXhXhXhXhXhXhXhXhXhXhXhXhXhXhXhXhXhXhXhXhXy.u.M.Z.Z.M.M.Z.Z.M.c.c.M.A.hXhXhXhXhXhXhXhXhXhXhXhXhXhXhXhXhXhXhXhXhXhXhXhXhX",
"hXhXhXhXhXhXhXhXhXhXhXhXhXhXhXhXhXhXhXhXhXhXhXhXhXt.f.h.Z.Z.M.k.Z.Z.Z.Z.Z.Z.9XhXhXhXhXhXhXhXhXhXhXhXhXhXhXhXhXhXhXhXhXhXhXhXhXhX",
"hXhXhXhXhXhXhXhXhXhXhXhXhXhXhXhXhXhXhXhXhXhXhXhXhXy.f.f.M.k.l.M.d.d.l.Z.Z.Z.9XhXhXhXhXhXhXhXhXhXhXhXhXhXhXhXhXhXhXhXhXhXhXhXhXhX",
"hXhXhXhXhXhXhXhXhXhXhXhXhXhXhXhXhXhXhXhXhXhXhXhXhXy.f.f.g.l.M.s.e d.N.N.Z.Z.9XhXhXhXhXhXhXhXhXhXhXhXhXhXhXhXhXhXhXhXhXhXhXhXhXhX",
"hXhXhXhXhXhXhXhXhXhXhXhXhXhXhXhXhXhXhXhXhXhXhXhXhXg.u.B.Z.Z.Z.8XhX0 z.M.m.M.n.hXhXhXhXhXhXhXhXhXhXhXhXhXhXhXhXhXhXhXhXhXhXhXhXhX",
"hXhXhXhXhXhXhXhXhXhXhXhXhXhXhXhXhXhXhXhXhXhXhXhXhXhXq B.l.A.c.8XhX9 I w T t hXhXhXhXhXhXhXhXhXhXhXhXhXhXhXhXhXhXhXhXhXhXhXhXhXhX",
"hXhXhXhXhXhXhXhXhXhXhXhXhXhXhXhXhXhXhXhXhXhXhXhXhXhXR h / h h hXhXhX( +.>. .hXhXhXhXhXhXhXhXhXhXhXhXhXhXhXhXhXhXhXhXhXhXhXhXhXhX",
"hXhXhXhXhXhXhXhXhXhXhXhXhXhXhXhXhXhXhXhXhXhXhXhXhXhX) +.@.o.P hXhXhX( O.,.=.hXhXhXhXhXhXhXhXhXhXhXhXhXhXhXhXhXhXhXhXhXhXhXhXhXhX",
"hXhXhXhXhXhXhXhXhXhXhXhXhXhXhXhXhXhXhXhXhXhXhXhXhXQ %.,.#.} hXhXhXhX( O.#.:.w hXhXhXhXhXhXhXhXhXhXhXhXhXhXhXhXhXhXhXhXhXhXhXhXhX",
"hXhXhXhXhXhXhXhXhXhXhXhXhXhXhXhXhXhXhXhXhXhXhXhXhXJ O.#.#.~ hXhXhXhX( O.#.L g 8 hXhXhXhXhXhXhXhXhXhXhXhXhXhXhXhXhXhXhXhXhXhXhXhX",
"hXhXhXhXhXhXhXhXhXhXhXhXhXhXhXhXhXhXhXhXhXhXhXhXhX] $.#.,.hXhXhXhXhX( ] K y R *.T 2.hXhXhXhXhXhXhXhXhXhXhXhXhXhXhXhXhXhXhXhXhXhX",
"hXhXhXhXhXhXhXhXhXhXhXhXhXhXhXhXhXhXhXhXhXhXhXX 4 J | ,.<.hXhXhXhX7 H J 6 i | T T 8 hXhXhXhXhXhXhXhXhXhXhXhXhXhXhXhXhXhXhXhXhXhX",
"hXhXhXhXhXhXhXhXhXhXhXhXhXhXhXhXhXhXhXhXhXhX6 E p i i Y  .hXhXhXhX. . 4 5 6 H i 8 7 hXhXhXhXhXhXhXhXhXhXhXhXhXhXhXhXhXhXhXhXhXhX",
"hXhXhXhXhXhXhXhXhXhXhXhXhXhXhXhXhXhXhXhXhXs P ! _ T g y 7 hXhXhXhXhXhX4 5 . X 4 y hXhXhXhXhXhXhXhXhXhXhXhXhXhXhXhXhXhXhXhXhXhXhX",
"hXhXhXhXhXhXhXhXhXhXhXhXhXhXhXhXhXhXhXhXhX. 7 7 f :.P y 6 hXhXhXhXhXhXhXhXhXhXhXhXhXhXhXhXhXhXhXhXhXhXhXhXhXhXhXhXhXhXhXhXhXhXhX",
"hXhXhXhXhXhXhXhXhXhXhXhXhXhXhXhXhXhXhXhXhXhX4 5 4 6 4 5 hXhXhXhXhXhXhXhXhXhXhXhXhXhXhXhXhXhXhXhXhXhXhXhXhXhXhXhXhXhXhXhXhXhXhXhX",
"hXhXhXhXhXhXhXhXhXhXhXhXhXhXhXhXhXhXhXhXhXhXhXhXhXhXhXhXhXhXhXhXhXhXhXhXhXhXhXhXhXhXhXhXhXhXhXhXhXhXhXhXhXhXhXhXhXhXhXhXhXhXhXhX",
"hXhXhXhXhXhXhXhXhXhXhXhXhXhXhXhXhXhXhXhXhXhXhXhXhXhXhXhXhXhXhXhXhXhXhXhXhXhXhXhXhXhXhXhXhXhXhXhXhXhXhXhXhXhXhXhXhXhXhXhXhXhXhXhX",
"hXhXhXhXhXhXhXhXhXhXhXhXhXhXhXhXhXhXhXhXhXhXhXhXhXhXhXhXhXhXhXhXhXhXhXhXhXhXhXhXhXhXhXhXhXhXhXhXhXhXhXhXhXhXhXhXhXhXhXhXhXhXhXhX",
"hXhXhXhXhXhXhXhXhXhXhXhXhXhXhXhXhXhXhXhXhXhXhXhXhXhXhXhXhXhXhXhXhXhXhXhXhXhXhXhXhXhXhXhXhXhXhXhXhXhXhXhXhXhXhXhXhXhXhXhXhXhXhXhX"
};
